<?xml version="1.0" standalone="no"?>
<!DOCTYPE svg PUBLIC "-//W3C//DTD SVG 20010904//EN"
 "http://www.w3.org/TR/2001/REC-SVG-20010904/DTD/svg10.dtd">
<svg version="1.0" xmlns="http://www.w3.org/2000/svg"
 width="64.000000pt" height="64.000000pt" viewBox="0 0 64.000000 64.000000"
 preserveAspectRatio="xMidYMid meet">

<g transform="translate(0.000000,64.000000) scale(0.100000,-0.100000)"
fill="#000000" stroke="none">
<path d="M0 320 l0 -320 320 0 320 0 0 320 0 320 -320 0 -320 0 0 -320z m625
300 c-4 -6 -115 -10 -301 -10 l-294 0 -1 -280 c-2 -310 -1 -295 -12 -306 -4
-4 -7 131 -7 299 l0 307 311 0 c204 0 308 -3 304 -10z m2 -35 c0 -8 -4 -15 -9
-15 -4 0 -8 7 -8 15 0 8 4 15 8 15 5 0 9 -7 9 -15z m-163 -42 c-15 -21 -37
-50 -49 -64 -30 -37 -51 -89 -38 -97 17 -12 25 -63 12 -78 -9 -11 -8 -18 5
-32 23 -26 20 -35 -6 -18 -20 13 -26 13 -48 1 l-25 -14 30 -1 c22 -1 11 -7
-40 -21 -38 -11 -72 -23 -75 -27 -7 -10 -50 -33 -50 -27 0 3 18 18 40 34 33
24 37 30 23 35 -13 5 -33 -10 -75 -56 -37 -41 -53 -53 -44 -35 10 21 11 38 5
60 -15 52 -10 123 11 177 11 28 17 56 14 62 -5 7 -2 8 5 3 7 -4 22 1 34 13 28
26 119 68 176 81 55 12 41 -1 -19 -18 -75 -22 -160 -70 -160 -91 0 -5 6 -10
14 -13 8 -3 13 1 12 11 -1 20 63 65 86 58 10 -2 16 0 12 5 -3 5 2 6 11 3 13
-5 13 -9 3 -22 -11 -13 -11 -14 1 -7 11 6 13 4 8 -8 -12 -32 9 -17 77 53 38
39 71 70 73 70 3 0 -7 -17 -23 -37z m166 -69 c0 -8 -5 -12 -10 -9 -6 4 -8 11
-5 16 9 14 15 11 15 -7z m0 -75 c0 -11 -4 -17 -10 -14 -5 3 -10 13 -10 21 0 8
5 14 10 14 6 0 10 -9 10 -21z m-397 -259 c7 0 6 -4 -2 -9 -12 -8 -13 -12 -1
-26 10 -12 11 -18 1 -28 -10 -9 -11 -8 -6 6 4 9 3 17 -3 17 -11 0 -22 57 -13
66 3 3 7 -1 9 -10 2 -9 9 -16 15 -16z"/>
<path d="M157 380 c-3 -11 -3 -20 -1 -20 2 0 8 9 14 20 6 11 7 20 2 20 -6 0
-12 -9 -15 -20z"/>
<path d="M141 228 c-1 -27 1 -48 3 -48 2 0 13 16 25 35 20 34 20 35 1 35 -10
0 -21 6 -23 13 -3 6 -6 -9 -6 -35z"/>
</g>
</svg>
